<svg id="Layer_1" data-name="Layer 1" xmlns="http://www.w3.org/2000/svg" viewBox="0 0 122.88 80.11"><defs><style>.cls-1{fill:#ffcb00;}.cls-2{fill:#262626;}.cls-3{fill:#fd5;}</style></defs><title>5k</title><path class="cls-1" d="M14.18,0H108.7a14.19,14.19,0,0,1,14.18,14.18V65.93A14.22,14.22,0,0,1,114.12,79a14.05,14.05,0,0,1-5.42,1.08H14.18A14.15,14.15,0,0,1,4.17,76h0A14.15,14.15,0,0,1,0,65.93V14.18A14.19,14.19,0,0,1,14.18,0Z"/><path class="cls-2" d="M16.07,7.25H106.8a6.81,6.81,0,0,1,2.65.52,6.7,6.7,0,0,1,2.25,1.51,7,7,0,0,1,1.52,2.26,6.72,6.72,0,0,1,.52,2.64V65.93a6.9,6.9,0,0,1-.52,2.64,7,7,0,0,1-1.52,2.26,6.88,6.88,0,0,1-2.25,1.52,7,7,0,0,1-2.65.52H16.07a6.81,6.81,0,0,1-4.89-2,7,7,0,0,1-1.52-2.26,6.72,6.72,0,0,1-.52-2.64V14.18a6.72,6.72,0,0,1,.52-2.64,7,7,0,0,1,1.52-2.26,6.7,6.7,0,0,1,2.25-1.51,6.79,6.79,0,0,1,2.64-.52Z"/><path class="cls-3" d="M60.46,19.91H73.11V35.39L86.38,19.91h16.84l-15,15.39,15.65,25.59H88.33L79.68,44.06l-6.57,6.85v10H60.46v-41Zm-34.08.6h27v9.1H35.1l-1,6.13a19.16,19.16,0,0,1,3.75-1.33A15.55,15.55,0,0,1,41.55,34a13.71,13.71,0,0,1,10,3.72A12.48,12.48,0,0,1,55.34,47a15.9,15.9,0,0,1-2,7.62,13.34,13.34,0,0,1-5.59,5.59,19.61,19.61,0,0,1-9.27,1.93,27.42,27.42,0,0,1-6.94-.77,14.17,14.17,0,0,1-4.92-2.29,13.86,13.86,0,0,1-3.28-3.45,18.47,18.47,0,0,1-2.1-4.82l11.51-1.26a7,7,0,0,0,2,4.22,5.14,5.14,0,0,0,3.66,1.44,5,5,0,0,0,3.93-1.8,8,8,0,0,0,1.56-5.38c0-2.44-.53-4.23-1.57-5.36A5.36,5.36,0,0,0,38.17,41a6.78,6.78,0,0,0-3.19.81,9.18,9.18,0,0,0-2.51,2.13l-9.7-1.4,3.61-22Z"/></svg>